<?xml version="1.0" encoding="utf-8"?>
<!-- Generator: Adobe Illustrator 25.2.1, SVG Export Plug-In . SVG Version: 6.00 Build 0)  -->
<svg version="1.1" id="Layer_1" xmlns="http://www.w3.org/2000/svg" xmlns:xlink="http://www.w3.org/1999/xlink" x="0px" y="0px"
	 viewBox="0 0 1000 1000" style="enable-background:new 0 0 1000 1000;" xml:space="preserve">
<style type="text/css">
	.st0{fill:none;stroke:#3F2975;stroke-width:8;stroke-linecap:round;stroke-linejoin:round;stroke-miterlimit:10;}
	.st1{fill:#FFFFFF;}
	.st2{fill:none;stroke:#3F2975;stroke-width:6;stroke-linecap:round;stroke-linejoin:round;stroke-miterlimit:10;}
	.st3{fill:#EC1CE4;}
	.st4{fill:#3F2975;}
	.st5{fill:#FF5959;}
	.st6{fill:#D29C5E;}
	.st7{fill:#D9D6E5;}
	.st8{fill:none;stroke:#3F2975;stroke-width:5;stroke-linecap:round;stroke-linejoin:round;stroke-miterlimit:10;}
	.st9{fill:#0CF9C3;}
</style>
<g>
	<line id="XMLID_23_" class="st0" x1="120.5" y1="781.4" x2="870.5" y2="781.4"/>
	<g>
		<path id="XMLID_5_" class="st1" d="M567,764.4c-6.4-6.9-14.4-12.9-24.4-17.4V386.3l11.5-19.9c5.1-8.9-1.3-19.9-11.5-19.9l0,0h-7
			h-71.7c-7.3,0-13.3,5.9-13.3,13.3v387.3c-10,4.5-18.6,10.5-25,17.4h-0.3c-4.8,0-8.6,3.9-8.6,8.6v7.4h159v-7.4
			C575.5,768.3,571.6,764.4,567,764.4z"/>
		<path id="XMLID_33_" class="st2" d="M566,764.4c-6.4-6.9-14.4-12.9-24.4-17.4V389c0-1.8,0.5-3.5,1.4-5l10.5-17
			c5.3-8.6-0.9-19.6-10.9-19.6l0,0h-7h-73.2c-7.1,0-12.8,5.7-12.8,12.8V747c-10,4.5-17.6,11.4-24,18.4h-0.3c-5.3,0-9.6,4.3-9.6,9.6
			v6.4h159V773C574.5,768.3,570.6,764.4,566,764.4z"/>
		<path id="XMLID_26_" class="st3" d="M536.8,759.8l-8.2-3.7V472.4h-0.2c0-10.6-8.6-19.2-19.2-19.2c-8.7,0-16,5.8-18.4,13.7
			c-1.5-1-3.3-1.5-5.2-1.5c-4.4,0-8.1,3-9.2,7h-11.8V756l-8.2,3.7c-4.3,1.9-8.2,4.2-11.8,6.6h103.7
			C544.8,763.9,541,761.7,536.8,759.8z"/>
		<path id="XMLID_94_" class="st2" d="M536.8,759.8l-8.2-3.7V472.4h-0.2c0-10.6-8.6-19.2-19.2-19.2c-8.7,0-16,5.8-18.4,13.7
			c-1.5-1-3.3-1.5-5.2-1.5c-4.4,0-8.1,3-9.2,7h-11.8V756l-8.2,3.7c-4.3,1.9-8.2,4.2-11.8,6.6h103.7
			C544.8,763.9,541,761.7,536.8,759.8z"/>
		<circle id="XMLID_24_" class="st3" cx="483" cy="412.9" r="9.5"/>
		<circle id="XMLID_50_" class="st2" cx="483" cy="412.9" r="9.5"/>
		<circle id="XMLID_4_" class="st3" cx="493" cy="311.9" r="16.5"/>
		<circle id="XMLID_3_" class="st2" cx="493" cy="311.9" r="16.5"/>
		<circle id="XMLID_14_" class="st3" cx="514" cy="276.9" r="6.4"/>
		<circle id="XMLID_8_" class="st2" cx="514" cy="276.9" r="6.4"/>
		<circle id="XMLID_28_" class="st3" cx="511" cy="388.9" r="4"/>
		<circle id="XMLID_83_" class="st2" cx="511" cy="388.9" r="4"/>
		<circle id="XMLID_74_" class="st4" cx="498.3" cy="567.2" r="3.2"/>
		<circle id="XMLID_76_" class="st4" cx="493.1" cy="613" r="10"/>
		<circle id="XMLID_78_" class="st4" cx="506.1" cy="664" r="4.4"/>
	</g>
	<g>
		<path id="XMLID_13_" class="st1" d="M403.5,585.7V435.4h-54v150.3c-47,12-82.5,55.7-82.5,107.2c0,36,17.8,67.5,44.5,88.5h132
			c26.7-21,43.5-52.5,43.5-88.5C487,641.5,451.5,597.8,403.5,585.7z"/>
		<path id="XMLID_10_" class="st2" d="M403.5,585.7V435.4h-54v150.3c-47,12-82.5,55.7-82.5,107.2c0,36,17.8,67.5,44.5,88.5h132
			c26.7-21,43.5-52.5,43.5-88.5C487,641.5,451.5,597.8,403.5,585.7z"/>
		<path id="XMLID_9_" class="st5" d="M464.8,652.4h-26.7c-0.4-5.6-5.1-10-10.8-10s-10.4,4.4-10.8,10h-1.1c-0.5-10-8.8-18-18.9-18
			c-3.2,0-6.2,0.8-8.8,2.2c-3.6-10.4-13.5-17.9-25.2-17.9c-12.8,0-23.6,9.1-26.1,21.2c-2.4-1.6-5.3-2.5-8.4-2.5
			c-8.4,0-15.2,6.7-15.5,15h-22.3c-5.7,12.5-8.7,26.3-8.7,40c0,28.8,12.7,55.7,34.8,74h122.3c22.2-18.3,34.8-45.2,34.8-74
			C473.5,678.7,470.5,664.9,464.8,652.4z"/>
		<path id="XMLID_40_" class="st2" d="M464.8,652.4h-26.7c-0.4-5.6-5.1-10-10.8-10s-10.4,4.4-10.8,10h-1.1c-0.5-10-8.8-18-18.9-18
			c-3.2,0-6.2,0.8-8.8,2.2c-3.6-10.4-13.5-17.9-25.2-17.9c-12.8,0-23.6,9.1-26.1,21.2c-2.4-1.6-5.3-2.5-8.4-2.5
			c-8.4,0-15.2,6.7-15.5,15h-22.3c-5.7,12.5-8.7,26.3-8.7,40c0,28.8,12.7,55.7,34.8,74h122.3c22.2-18.3,34.8-45.2,34.8-74
			C473.5,678.7,470.5,664.9,464.8,652.4z"/>
		<path id="XMLID_91_" class="st2" d="M337.8,655.2c-1.2-3-1.9-6.4-1.9-9.8c0-14.7,11.9-26.7,26.7-26.7c11.6,0,21.5,7.5,25.2,17.9"
			/>
		<path id="XMLID_29_" class="st2" d="M408.8,667.9"/>
		<path id="XMLID_38_" class="st2" d="M379,646c2.9-6.8,9.6-11.6,17.5-11.6c10.5,0,19,8.5,19,19"/>
		<path id="XMLID_39_" class="st2" d="M416.5,653.2c0-6,4.9-10.8,10.8-10.8c6,0,10.8,4.9,10.8,10.8"/>
		<rect id="XMLID_41_" x="358" y="396.4" class="st6" width="37" height="62"/>
		<rect id="XMLID_34_" x="358" y="396.4" class="st2" width="37" height="62"/>
		<path id="XMLID_30_" class="st7" d="M407,434.4h-60c-6.6,0-12-5.4-12-12l0,0c0-6.6,5.4-12,12-12h60c6.6,0,12,5.4,12,12l0,0
			C419,429,413.6,434.4,407,434.4z"/>
		<path id="XMLID_6_" class="st2" d="M407,434.4h-60c-6.6,0-12-5.4-12-12l0,0c0-6.6,5.4-12,12-12h60c6.6,0,12,5.4,12,12l0,0
			C419,429,413.6,434.4,407,434.4z"/>
		<circle id="XMLID_47_" class="st5" cx="392.3" cy="604.3" r="12.2"/>
		<circle id="XMLID_46_" class="st5" cx="379.5" cy="500.6" r="5.5"/>
		<circle id="XMLID_43_" class="st5" cx="369" cy="540" r="7"/>
		<circle id="XMLID_42_" class="st2" cx="392.3" cy="604.3" r="12.2"/>
		<circle id="XMLID_44_" class="st2" cx="379.5" cy="500.6" r="4"/>
		<circle id="XMLID_45_" class="st2" cx="369" cy="540" r="7"/>
		<circle id="XMLID_54_" class="st5" cx="429.8" cy="619" r="3"/>
		<circle id="XMLID_48_" class="st8" cx="429.8" cy="619" r="3"/>
		<circle id="XMLID_59_" class="st8" cx="411.8" cy="628" r="0.8"/>
		<circle id="XMLID_27_" class="st4" cx="356.5" cy="717.4" r="3"/>
		<circle id="XMLID_35_" class="st4" cx="378.5" cy="741.4" r="6.4"/>
		<circle id="XMLID_71_" class="st4" cx="387.5" cy="706.4" r="3"/>
		<circle id="XMLID_56_" class="st4" cx="408.5" cy="738.4" r="3.4"/>
	</g>
	<g>
		<path id="XMLID_31_" class="st7" d="M637.2,484.4H574c-6.6,0-12-5.4-12-12l0,0c0-6.6,5.4-12,12-12h63.3c6.6,0,12,5.4,12,12l0,0
			C649.2,479,643.8,484.4,637.2,484.4z"/>
		<path id="XMLID_11_" class="st2" d="M637.2,484.4H574c-6.6,0-12-5.4-12-12l0,0c0-6.6,5.4-12,12-12h63.3c6.6,0,12,5.4,12,12l0,0
			C649.2,479,643.8,484.4,637.2,484.4z"/>
		<path id="XMLID_12_" class="st1" d="M632.5,612.4v-128h-54v128l-87.6,137.3c-8.5,13.3,0.9,30.7,16.7,30.7h195.1
			c15.8,0,25.6-17.4,17.1-30.7L632.5,612.4z"/>
		<path id="XMLID_22_" class="st2" d="M632.5,612.4v-128h-54v128l-87.6,137.3c-8.5,13.3,0.9,30.7,16.7,30.7h195.1
			c15.8,0,25.6-17.4,17.1-30.7L632.5,612.4z"/>
		<path id="XMLID_25_" class="st9" d="M708,757.1l-35.2-55.4c-3.7-8.8-11.7-14.8-21-14.8c-4.7,0-9.2,1.6-12.8,4.3
			c-4.2-4.5-9.9-7.3-16.2-7.3c-8.8,0-16.5,5.5-20.4,13.5h-4.2c-4.2-4.6-10-7.5-16.4-7.5s-12.2,2.9-16.4,7.5h-1.8
			c-3.2,1.9-6.9,3-10.9,3s-7.6-1.1-10.9-3h-1l-38.1,59.7c-1.9,3-0.8,5.4-0.4,6.1c0.6,1.2,2.2,3.1,5.3,3.1h195.1
			c3.3,0,4.9-2.2,5.4-3.1C708.8,761.8,709.5,759.6,708,757.1z"/>
		<path id="XMLID_36_" class="st2" d="M708,757.1l-35.2-55.4c-3.7-8.8-11.7-14.8-21-14.8c-4.7,0-9.2,1.6-12.8,4.3
			c-4.2-4.5-9.9-7.3-16.2-7.3c-8.8,0-16.5,5.5-20.4,13.5h-4.2c-4.2-4.6-10-7.5-16.4-7.5s-12.2,2.9-16.4,7.5h-1.8
			c-3.2,1.9-6.9,3-10.9,3s-7.6-1.1-10.9-3h-1l-38.1,59.7c-1.9,3-0.8,5.4-0.4,6.1c0.6,1.2,2.2,3.1,5.3,3.1h195.1
			c3.3,0,4.9-2.2,5.4-3.1C708.8,761.8,709.5,759.6,708,757.1z"/>
		<circle id="XMLID_62_" class="st9" cx="595.2" cy="657.9" r="10"/>
		<circle id="XMLID_61_" class="st2" cx="595.2" cy="657.9" r="10"/>
		<circle id="XMLID_64_" class="st9" cx="629.8" cy="664.5" r="6.6"/>
		<circle id="XMLID_63_" class="st2" cx="629.8" cy="664.5" r="6.6"/>
		<circle id="XMLID_88_" class="st9" cx="608.8" cy="603.2" r="5.2"/>
		<circle id="XMLID_65_" class="st2" cx="608.8" cy="603.2" r="5.2"/>
		<circle id="XMLID_89_" class="st4" cx="591.5" cy="720.4" r="6.4"/>
		<circle id="XMLID_90_" class="st4" cx="633.3" cy="735.2" r="3.2"/>
		<circle id="XMLID_37_" class="st2" cx="613.6" cy="544" r="2.1"/>
		<circle id="XMLID_2_" class="st2" cx="597.6" cy="497" r="2.1"/>
	</g>
</g>
</svg>
